<svg version="1.1" viewBox="0.0 0.0 1077.971128608924 639.1732283464567" fill="none" stroke="none" stroke-linecap="square" stroke-miterlimit="10" xmlns:xlink="http://www.w3.org/1999/xlink" xmlns="http://www.w3.org/2000/svg"><clipPath id="p.0"><path d="m0 0l1077.9711 0l0 639.1732l-1077.9711 0l0 -639.1732z" clip-rule="nonzero"/></clipPath><g clip-path="url(#p.0)"><path fill="#000000" fill-opacity="0.0" d="m0 0l1077.9711 0l0 639.1732l-1077.9711 0z" fill-rule="evenodd"/><path fill="#ff0000" d="m219.99869 319.58618l0 0c0 -170.10368 134.31458 -308.0 299.99997 -308.0l0 0c79.565 0 155.87115 32.44991 212.13208 90.211105c56.260925 57.761215 87.86792 136.10222 87.86792 217.78888l0 0c0 170.10373 -134.31451 308.0 -300.0 308.0l0 0c-165.6854 0 -299.99997 -137.89627 -299.99997 -308.0zm111.54001 0l0 0c0 108.50186 84.3764 196.46002 188.45996 196.46002c104.08362 0 188.46002 -87.95816 188.46002 -196.46002c0 -108.50185 -84.3764 -196.45999 -188.46002 -196.45999l0 0c-104.08356 0 -188.45996 87.95814 -188.45996 196.45999z" fill-rule="evenodd"/><path fill="#4a86e8" d="m423.9987 134.02977l64.0 0l0 384.0l-64.0 0z" fill-rule="evenodd"/><path fill="#4a86e8" d="m255.99869 134.02977l64.0 0l0 384.0l-64.0 0z" fill-rule="evenodd"/><path fill="#ffd966" d="m832.2301 490.35703l-251.24518 -36.02356l27.450378 -61.32608l-258.62537 12.461639l23.835907 -64.94055l-373.64462 -38.50122l442.11148 -126.254074l-32.27542 76.12018l277.73132 -75.41261l-32.017883 94.52533l292.5511 -80.310074z" fill-rule="evenodd"/><path fill="#4a86e8" d="m255.99869 518.0298l166.38345 -384.0l65.61655 0l-166.38345 384.0z" fill-rule="evenodd"/><path fill="#4a86e8" d="m423.9987 518.0298l166.38345 -384.0l65.616516 0l-166.38342 384.0z" fill-rule="evenodd"/><path fill="#14bf6c" d="m487.9987 518.0298l166.38345 -384.0l65.616516 0l-166.38342 384.0z" fill-rule="evenodd"/><path fill="#14bf6c" d="m631.99866 326.02975l80.72418 -191.99998l71.27582 0l-80.72412 191.99998z" fill-rule="evenodd"/><path fill="#14bf6c" d="m695.99866 326.02975l80.72418 -191.99998l71.27582 0l-80.72412 191.99998z" fill-rule="evenodd"/><path fill="#14bf6c" d="m759.99866 326.02975l80.72418 -191.99998l71.27582 0l-80.72412 191.99998z" fill-rule="evenodd"/><path fill="#ffd966" d="m655.99866 270.02975l36.835083 -87.999985l139.16492 0l-36.835022 87.999985z" fill-rule="evenodd"/><path fill="#14bf6c" d="m623.99866 518.0298l80.72418 -192.00003l71.27582 0l-80.72412 192.00003z" fill-rule="evenodd"/></g></svg>